<?xml version="1.0" encoding="iso-8859-1"?>
<!-- Uploaded to: SVG Repo, www.svgrepo.com, Generator: SVG Repo Mixer Tools -->
<svg fill="orange" height="800px" width="800px" version="1.1" id="Layer_1" xmlns="http://www.w3.org/2000/svg" xmlns:xlink="http://www.w3.org/1999/xlink" 
	 viewBox="0 0 511.999 511.999" xml:space="preserve">
<g>
	<g>
		<path d="M201.632,305.278l-5.854,74.492c-0.754,9.584,6.406,17.965,15.991,18.717c9.027,0.715,17.01-5.615,18.514-14.398v-78.812
			H201.632z"/>
	</g>
</g>
<g>
	<g>
		<path d="M327.754,378.167l-12.616-72.888h-30.512v27.847l8.824,50.978c1.641,9.481,10.657,15.823,20.12,14.184
			C323.044,396.649,329.394,387.641,327.754,378.167z"/>
	</g>
</g>
<g>
	<g>
		<circle cx="259.198" cy="119.013" r="30.069"/>
	</g>
</g>
<g>
	<g>
		<circle cx="100.347" cy="136.41" r="33.482"/>
	</g>
</g>
<g>
	<g>
		<path d="M243.777,221.948c-2.729-2.725-6.43-4.251-10.286-4.245c-13.315,0.023-31.19,0.053-32.787,0.058
			c13.204,2.291,23.838,12.955,25.608,26.777v2.293h7.151v0.001c8.05,0,14.577-6.526,14.577-14.577v-0.029
			C248.04,228.37,246.506,224.673,243.777,221.948z"/>
	</g>
</g>
<g>
	<g>
		<path d="M332.152,180.77c-6.349-13.429-20.049-22.107-34.903-22.107c-1.521,0-68.711,0-76.279,0
			c-14.856,0-28.555,8.677-34.903,22.107c-1.657,3.507-16.315,34.513-18.424,38.975l24.811-2.311
			c2.809-0.262,5.565-0.137,8.219,0.321c6.571-13.902,5.128-10.847,11.622-24.586c0-0.001,0.001-0.002,0.001-0.004
			c0.039-0.081,0.078-0.162,0.119-0.242c0.91-1.79,2.929-2.721,4.882-2.253c1.952,0.469,3.328,2.215,3.328,4.224v9.527l9.703-0.024
			c0-4.117,0-8.568,0-17.381c0-2.076,1.98-3.583,3.98-3.034c14.004,3.85,10.982,3.019,24.908,6.848
			c13.909-3.824,10.904-2.998,24.908-6.848c2.002-0.55,3.98,0.959,3.98,3.034c0,8.796,0,13.376,0,17.514h9.358v-9.604
			c0-2.038,1.397-3.81,3.378-4.286c1.982-0.476,4.034,0.467,4.959,2.283c0.042,0.082,0.082,0.164,0.122,0.249
			c6.499,13.746,5.117,10.823,11.586,24.509H284.49c-8.05,0-14.577,6.526-14.577,14.577s6.526,14.577,14.577,14.577
			c1.254,0,3.51,0,6.453,0c2.773-15.445,16.959-26.455,32.87-24.974l29.047,2.706C344.766,207.447,333.965,184.605,332.152,180.77z"
			/>
	</g>
</g>
<g>
	<g>
		<circle cx="413.88" cy="142.624" r="32.742"/>
	</g>
</g>
<g>
	<g>
		<path d="M502.088,202.042c-6.648-1.314-13.108,3.025-14.417,9.68L466.5,319.42h-15.465c1.492-0.97,2.895-2.089,4.163-3.376
			c4.638-4.708,7.208-11.07,7.142-17.678l-0.831-84.249c-0.137-13.813-11.526-24.864-25.332-24.591l-22.847,0.451
			c-13.797,0.273-24.731,11.751-24.34,25.541l0.248,8.738l33.6-21.173l-38.392,40.186l-62.092-5.783
			c-8.165-0.766-15.387,5.237-16.146,13.394c-0.437,4.698,1.374,9.08,4.54,12.103c-11.296,0-99.722,0-110.835,0
			c6.672-2.1,11.214-8.624,10.539-15.87c-0.777-8.343-8.172-14.48-16.512-13.698l-63.499,5.914L91.18,198.235l34.361,21.653
			l0.253-8.937c0.4-14.107-10.787-25.841-24.891-26.12l-23.364-0.461c-14.124-0.279-26.191,11.029-26.33,25.148v86.156
			c-0.083,8.485,3.666,16.679,11.116,21.532H46.531L24.883,207.068c-1.338-6.805-7.94-11.238-14.745-9.899
			c-6.804,1.337-11.237,7.938-9.9,14.743L23.88,332.186c0.588,2.994,2.215,5.559,4.459,7.362v36.108v39.027
			c0,4.623,3.748,8.372,8.372,8.372s8.372-3.748,8.372-8.372v-30.655h74.953l0.339,0.88l-5.239,13.239
			c-3.699,9.349,0.88,19.926,10.229,23.625c9.35,3.699,19.926-0.881,23.625-10.229c44.248-111.817,41.521-104.781,41.933-106.264
			c1.629-5.873,0.259-12.393-4.142-17.179c6.404,0,51.808,0,58.116,0V397.94c-6.506,0-10.613,0-17.18,0
			c-6.935,0-12.557,5.623-12.557,12.557c0,6.935,5.622,12.558,12.557,12.558c13.556,0,45.944,0,59.473,0
			c6.935,0,12.557-5.623,12.557-12.558c0-6.935-5.623-12.557-12.557-12.557c-6.566,0-10.674,0-17.18,0V288.101
			c28.716,0,31.548,0,59.802,0c1.693,0,3.305-0.34,4.779-0.947c-7.929,3.914-12.257,13.515-8.69,22.529l40.409,102.115
			c3.619,9.151,13.97,13.618,23.102,10.002c9.142-3.617,13.621-13.961,10.002-23.102l-5.148-13.01l0.357-0.926h73.295v30.106
			c0,4.521,3.665,8.186,8.186,8.186s8.186-3.665,8.186-8.186v-38.292v-35.308c2.193-1.763,3.784-4.272,4.36-7.2l23.118-117.609
			C513.076,209.805,508.742,203.35,502.088,202.042z M45.083,367.285v-24.964h58.869l9.628,24.964H45.083z M129.465,361.941
			l-7.567-19.62h2.207c6.935,0,12.557-5.623,12.557-12.558c0-4.75-2.639-8.882-6.529-11.015l16.443-0.048L129.465,361.941z
			 M172.538,275.543c0,2.3,0.629,4.449,1.709,6.303h-55.776c-7.154,0-13.797-3.718-17.55-9.81
			c-11.208-18.196-34.08-55.323-33.964-55.101c-0.057-0.097-0.153-0.295-0.153-0.295l46.77,48.956
			c3.143,3.289,7.67,5.061,12.376,4.625l51.763-4.82C174.581,267.683,172.538,271.37,172.538,275.543z M385.381,363.229
			l-16.708-42.219l15.867,0.047c-3.685,2.119-6.173,6.087-6.173,10.644c0,6.782,5.498,12.28,12.28,12.28h2.157L385.381,363.229z
			 M342.503,285.332c-0.018,0-0.034,0-0.052,0c-2.577,0-4.984,0.541-7.149,1.492c4.179-2.039,7.066-6.316,7.066-11.28
			c0-0.032-0.004-0.063-0.004-0.096s0.004-0.063,0.004-0.096c0-2.332-0.658-4.507-1.781-6.369l48.252,4.493
			c4.641,0.429,9.055-1.334,12.102-4.523l45.748-47.885c0,0-0.106,0.203-0.163,0.302l-32.982,53.896
			c-3.888,6.353-10.835,10.241-18.283,10.219C377.967,285.435,347.559,285.346,342.503,285.332z M467.919,368.39h-66.981
			l9.414-24.41h57.566V368.39z"/>
	</g>
</g>
</svg>